<svg version="1.1" id="Layer_1" xmlns="http://www.w3.org/2000/svg" xmlns:xlink="http://www.w3.org/1999/xlink" x="0px" y="0px"
	 width="100%" viewBox="0 0 496 496" enable-background="new 0 0 496 496" xml:space="preserve">
<path fill="#000000" opacity="1.000000" stroke="none" 
	d="
M317.004059,207.008011 
	C323.486206,208.045868 328.015045,204.282364 331.873657,200.134689 
	C335.173035,196.588089 333.214600,192.230789 331.490540,188.421616 
	C330.379974,185.967957 328.993652,183.722565 331.435638,180.610336 
	C336.767365,187.060150 338.942200,194.378845 340.205139,202.081558 
	C340.338348,202.894028 340.243866,203.744827 340.244781,204.577850 
	C340.254669,213.558746 340.158752,213.658035 331.519562,214.141052 
	C330.867371,214.177505 330.222809,214.350174 328.256744,214.681900 
	C334.832977,218.017944 338.912628,222.301010 339.247864,228.955643 
	C339.440277,232.775558 339.533112,236.644958 339.160492,240.442001 
	C335.393402,278.829987 309.371094,308.735870 271.445496,316.689362 
	C222.981461,326.852875 178.540939,294.592163 170.690918,248.017105 
	C168.065430,232.439819 169.478561,217.173080 175.339417,202.431595 
	C176.351837,199.885101 176.637329,197.335205 176.708542,194.644882 
	C177.364929,169.846375 178.066467,145.048996 178.804947,120.252769 
	C178.966980,114.812515 180.671494,110.011810 185.762344,107.253426 
	C194.788391,102.362831 205.112152,108.430367 205.296249,118.829643 
	C205.484955,129.489639 205.338242,140.155579 205.338333,150.818909 
	C205.338348,152.946152 205.338318,155.073395 205.338318,157.200653 
	C205.699905,157.275574 206.061493,157.350510 206.423080,157.425430 
	C209.828812,147.139832 213.260178,136.862610 216.632767,126.566147 
	C219.740753,117.077507 222.724457,107.547829 225.878601,98.074745 
	C228.192688,91.124641 234.677414,87.408264 241.545349,88.892693 
	C248.486984,90.393051 252.951187,96.438568 251.335907,103.906281 
	C248.424103,117.368073 244.768997,130.669067 241.426010,144.037643 
	C241.229721,144.822586 241.048080,145.611191 241.359589,146.641098 
	C250.939041,129.986099 260.499817,113.320312 270.111420,96.683899 
	C272.428711,92.672966 274.356171,88.306351 279.016907,86.245102 
	C283.911682,84.080338 290.065399,85.041756 293.883698,88.664230 
	C297.699585,92.284424 298.947449,98.777733 296.298615,104.431877 
	C291.565887,114.534485 286.493073,124.477676 281.571533,134.491989 
	C279.662170,138.377213 278.000336,142.405151 275.818237,146.129303 
	C273.670319,149.795151 274.605164,151.229889 278.540924,152.337463 
	C296.136780,157.289215 310.194885,167.624008 321.608307,181.666000 
	C329.223938,191.035614 327.686371,199.671371 316.784729,206.807648 
	C307.797882,208.936172 302.376526,204.992188 297.223053,198.905548 
	C283.210083,182.355209 265.217804,175.518494 243.749924,179.402283 
	C213.452515,184.883423 193.238983,216.018036 200.348892,245.702637 
	C206.763321,272.483612 229.729172,289.557465 258.161835,288.683319 
	C282.301636,287.941193 304.425873,267.415649 309.008514,242.126343 
	C310.562225,233.552094 306.566345,223.485275 317.150818,216.348969 
	C299.635071,218.322800 284.498657,222.679779 268.888641,227.225235 
	C269.489624,224.118515 271.210388,223.580292 272.584595,222.770187 
	C277.898499,219.637527 283.466705,217.051102 289.222717,214.805099 
	C298.237274,211.287582 307.761047,209.664307 317.004059,207.008011 
z"/>
<path fill="#000000" opacity="1.000000" stroke="none" 
	d="
M396.110657,127.442513 
	C396.692719,133.466034 397.188751,139.063141 397.750519,145.401825 
	C401.185120,140.744965 398.242706,135.333862 401.120605,131.093460 
	C405.290527,131.910797 404.589630,135.290771 404.537537,137.744965 
	C404.274323,150.142075 401.895538,162.225677 397.677795,173.844696 
	C393.954468,184.101715 395.815674,194.612976 395.385712,205.019394 
	C395.282379,207.519485 397.573578,207.395035 399.368561,207.816467 
	C415.489777,211.601517 431.150757,216.595917 445.116272,225.844208 
	C446.524719,226.776917 448.522888,227.249176 448.822906,229.505630 
	C446.905396,230.151184 445.587677,228.829330 444.133514,228.263382 
	C424.417267,220.590073 403.869507,216.848419 382.868103,215.304550 
	C375.900970,214.792374 368.914825,214.511703 361.932861,214.240616 
	C358.701660,214.115158 357.645721,213.075638 358.346832,209.574509 
	C359.889374,201.871353 361.978210,194.376373 364.873474,187.080307 
	C369.150970,176.300964 370.966034,164.999359 371.692535,153.496902 
	C371.826294,151.378754 372.052551,149.125458 370.016785,146.960785 
	C366.146637,151.483902 370.773651,158.700928 364.515747,163.051178 
	C362.543854,154.332474 364.415619,145.528748 361.145935,137.512283 
	C358.009735,138.466690 358.337738,140.663971 358.306702,142.560883 
	C358.224884,147.558228 358.312195,152.558456 358.218140,157.555389 
	C358.183685,159.384323 357.972961,161.766083 355.685425,161.764191 
	C353.131592,161.762085 353.401581,159.086929 353.481201,157.467438 
	C353.834900,150.272385 353.170044,143.185318 351.813751,136.140854 
	C351.440216,134.200684 351.137238,132.194122 348.452698,130.635803 
	C344.665283,141.157578 350.566071,151.954849 347.288605,162.465820 
	C344.437653,161.238281 344.280884,158.933136 343.774689,156.964417 
	C342.160065,150.684891 340.714966,144.361755 339.102051,138.081757 
	C338.596588,136.113495 338.454803,133.023026 335.452515,133.885941 
	C332.628967,134.697479 333.082794,137.498688 333.795837,139.845535 
	C335.973663,147.013290 337.755798,154.280792 338.868439,161.685013 
	C339.549438,166.216858 339.958160,170.810684 338.664215,176.105820 
	C333.860321,173.547180 330.977966,169.613586 330.033356,165.673203 
	C326.707672,151.799988 319.516693,140.251160 310.583221,129.514709 
	C308.941437,127.541588 306.314270,125.508728 309.183167,122.729561 
	C311.841705,120.154182 314.666992,121.083145 317.323242,123.015877 
	C319.934265,124.915680 321.689026,127.554260 323.571503,130.102310 
	C324.708923,131.641861 325.324707,133.788086 328.222290,134.244644 
	C329.739380,129.191681 329.023865,124.058609 328.260071,119.128372 
	C326.886536,110.262123 324.941132,101.480194 322.260925,92.891571 
	C321.497131,90.444016 321.304565,87.922707 321.851746,85.483543 
	C322.546539,82.386353 324.427399,80.723328 327.682861,82.464943 
	C330.624512,84.038651 334.263977,83.602211 336.447479,86.095871 
	C338.433228,85.180321 338.365387,83.714668 338.624725,82.474861 
	C338.989655,80.730217 339.579803,79.078911 341.606995,79.046051 
	C343.527618,79.014923 344.385437,80.613258 345.101624,82.178986 
	C347.485443,87.390381 346.813110,93.284615 348.813171,99.368515 
	C351.337494,96.527519 350.718811,93.732201 350.378967,91.099983 
	C348.517822,76.684906 344.753906,62.729660 339.938446,49.048389 
	C338.920166,46.155334 338.438446,43.260918 338.755615,40.229328 
	C339.019501,37.706692 340.121063,35.591492 342.707642,35.054688 
	C345.476135,34.480133 347.268768,36.417957 347.990845,38.687218 
	C350.307587,45.967880 352.277740,53.358002 354.458923,60.682877 
	C356.190765,66.498840 357.588226,72.455635 361.099060,78.813774 
	C363.813354,72.031181 361.573822,66.349472 361.207977,60.766060 
	C360.687531,52.822922 358.585938,45.024254 358.694031,36.997704 
	C358.728699,34.424820 358.924774,31.645761 361.952942,30.979271 
	C365.137939,30.278265 366.313995,33.009899 367.189117,35.310921 
	C369.872955,42.367603 370.878448,49.774143 371.309692,57.273861 
	C371.615387,62.590839 371.924652,67.907791 372.276184,73.221863 
	C372.386292,74.887016 372.575592,76.576309 374.642059,77.469086 
	C377.649933,75.411926 377.782043,72.311104 377.380157,69.143806 
	C376.327911,60.850368 376.469543,52.532612 376.698090,44.210712 
	C376.758545,42.009174 376.863312,39.530491 379.767822,39.325764 
	C382.392303,39.140770 383.559235,41.278442 384.144928,43.412823 
	C386.676727,52.639309 386.232666,62.214413 387.292114,71.616348 
	C387.505829,73.512848 386.663574,75.669258 388.722595,77.384995 
	C391.764771,76.090279 391.511139,73.243370 391.622772,70.748123 
	C391.830994,66.092667 391.616821,61.419430 392.549713,56.806259 
	C392.877350,55.186119 392.718140,53.196568 394.964569,53.031780 
	C397.535858,52.843159 398.542084,54.989021 398.824615,56.880806 
	C399.786499,63.321953 399.684326,69.817513 398.799500,76.273064 
	C396.494019,93.094589 392.999054,109.605728 387.885925,125.865326 
	C386.065613,131.653748 388.185577,138.371902 389.467987,144.605927 
	C391.548584,142.063324 390.578461,139.226349 390.657471,136.538116 
	C390.740662,133.708450 390.540527,130.868317 390.677460,128.043106 
	C390.766968,126.195633 390.013947,123.522476 392.812561,123.181671 
	C395.184875,122.892784 395.243378,125.463844 396.110657,127.442513 
M339.720825,114.920723 
	C339.978973,111.559563 338.870850,108.932388 335.678131,107.139336 
	C335.938049,112.974525 336.367493,114.229965 339.263763,117.566620 
	C339.426636,116.804756 339.557220,116.194000 339.720825,114.920723 
z"/>
<path fill="#000000" opacity="1.000000" stroke="none" 
	d="
M210.316086,367.897125 
	C206.591721,378.560760 193.855545,381.054382 184.390610,377.825928 
	C175.611938,374.831543 170.870789,364.320740 173.192398,353.316315 
	C175.356659,343.057739 181.317459,337.985962 191.510712,337.730042 
	C201.692703,337.474457 208.712173,342.058655 210.838898,350.788269 
	C212.188965,356.329895 212.177658,361.978973 210.316086,367.897125 
M191.693390,368.875885 
	C194.131744,368.974335 196.310806,368.480255 197.817520,366.318085 
	C200.292587,362.766327 200.281952,354.089386 197.776749,350.547668 
	C195.505920,347.337311 191.191498,346.627625 188.156998,348.965240 
	C182.821487,353.075439 184.641861,366.198120 191.693390,368.875885 
z"/>
<path fill="#000000" opacity="1.000000" stroke="none" 
	d="
M314.968262,378.342865 
	C307.568329,378.318604 307.290253,378.303192 307.679504,371.286469 
	C307.989685,365.694824 306.508484,360.903198 303.689667,356.174683 
	C300.559814,350.924438 297.916534,345.384125 294.755005,339.389069 
	C299.399780,338.584503 303.975800,337.023651 306.997742,339.969940 
	C309.784515,342.686920 310.906891,347.111023 313.159668,351.569458 
	C315.344788,347.229919 316.533142,343.014465 319.172546,340.124084 
	C322.104340,336.913483 326.626343,338.986877 330.643402,338.920685 
	C331.050476,342.498230 328.791260,344.784851 327.394775,347.255096 
	C322.633392,355.677521 317.525391,363.893738 319.104828,374.281555 
	C319.479980,376.748932 318.332153,378.512329 314.968262,378.342865 
z"/>
<path fill="#000000" opacity="1.000000" stroke="none" 
	d="
M291.698914,338.944702 
	C294.983795,345.996796 293.786469,348.085541 286.953796,348.170258 
	C285.622864,348.186768 284.291138,348.204041 282.961792,348.264954 
	C281.054657,348.352356 280.423340,349.534882 280.419464,351.270477 
	C280.415771,352.930389 280.830475,354.310242 282.756622,354.480133 
	C284.244080,354.611328 285.758179,354.687164 287.241943,354.564240 
	C290.689972,354.278595 292.436249,355.306152 292.398590,359.231842 
	C292.362244,363.018341 290.818909,364.091003 287.292389,364.114014 
	C280.419189,364.158844 280.420135,364.305420 280.377777,371.427368 
	C280.335968,378.458984 280.330200,378.248901 274.121979,378.419495 
	C270.127075,378.529297 268.899292,376.962311 268.962616,373.149811 
	C269.122955,363.498718 269.103180,353.840820 268.928467,344.189789 
	C268.857635,340.277222 269.938538,338.324127 274.278198,338.576538 
	C279.919342,338.904572 285.588745,338.747589 291.698914,338.944702 
z"/>
<path fill="#000000" opacity="1.000000" stroke="none" 
	d="
M216.479477,339.031677 
	C225.209747,338.777405 233.519363,338.799652 241.823257,338.592377 
	C245.433365,338.502289 245.882050,340.620544 245.885239,343.374542 
	C245.888412,346.121765 245.417969,348.629730 241.870544,348.191132 
	C236.890121,347.575348 236.053345,350.150269 236.226776,354.364899 
	C236.479401,360.504425 236.048615,366.674591 236.364914,372.808167 
	C236.594528,377.261078 234.916855,378.490295 230.617859,378.488495 
	C226.197388,378.486694 224.342499,377.323853 224.588379,372.593567 
	C224.941620,365.797363 224.602203,358.967682 224.693192,352.154114 
	C224.729675,349.422180 223.677155,348.381927 220.908752,348.209930 
	C214.453156,347.808960 213.469528,345.825378 216.479477,339.031677 
z"/>
<path fill="#000000" opacity="1.000000" stroke="none" 
	d="
M250.039581,366.969177 
	C250.020325,359.169037 250.223679,351.854797 249.905472,344.563324 
	C249.686707,339.550293 251.915634,338.509857 256.438629,338.501038 
	C260.871185,338.492371 262.246643,340.069458 262.152222,344.321320 
	C261.938507,353.945526 261.925568,363.580627 262.133881,373.204742 
	C262.227509,377.532562 260.296631,378.590240 256.415161,378.423370 
	C252.909546,378.272675 249.518219,378.593994 250.001266,373.438416 
	C250.186325,371.463348 250.036835,369.456909 250.039581,366.969177 
z"/>
</svg>